<svg xmlns="http://www.w3.org/2000/svg" width="134" height="134" viewBox="0 0 134 134"><g transform="translate(-1165 -317)"><path d="M67,134A67.018,67.018,0,0,1,40.92,5.265a67.017,67.017,0,0,1,52.159,123.47A66.581,66.581,0,0,1,67,134ZM47.2,39.408a8.5,8.5,0,0,0-6.01,14.51L54.98,67.707,41.9,80.789A8.5,8.5,0,0,0,53.919,92.81L67,79.728,80.082,92.809A8.5,8.5,0,1,0,92.1,80.789L79.021,67.708,92.81,53.919A8.5,8.5,0,1,0,80.789,41.9L67,55.687,53.212,41.9A8.446,8.446,0,0,0,47.2,39.408Z" transform="translate(1165 317)" fill="#781679"/></g></svg>