<svg xmlns="http://www.w3.org/2000/svg" viewBox="0 0 89.25 105.81"><defs><style>.cls-1,.cls-2,.cls-4{fill:none;}.cls-1,.cls-2,.cls-3,.cls-5,.cls-6{stroke:#000;}.cls-1,.cls-2,.cls-3,.cls-4,.cls-5,.cls-6{stroke-miterlimit:10;}.cls-1{stroke-width:3px;}.cls-2,.cls-3,.cls-4,.cls-5,.cls-6{stroke-linecap:round;}.cls-2{stroke-width:2.34px;}.cls-3,.cls-5,.cls-6{fill:#150a00;}.cls-3{stroke-width:0.95px;}.cls-4{stroke:#fff;}.cls-5{stroke-width:0.15px;}.cls-6{stroke-width:0.06px;}</style></defs><g id="Layer_2" data-name="Layer 2"><g id="Layer_1-2" data-name="Layer 1"><path class="cls-1" d="M69.91,55.55v41.2a7.56,7.56,0,0,1-7.56,7.56H9.06A7.56,7.56,0,0,1,1.5,96.75V14.35A7.56,7.56,0,0,1,9.06,6.79H62.35a7.56,7.56,0,0,1,7.56,7.56V27"/><line class="cls-1" x1="16.81" y1="27.7" x2="54.6" y2="27.7"/><line class="cls-2" x1="27.08" y1="13.78" x2="27.08" y2="1.17"/><line class="cls-2" x1="45.01" y1="13.78" x2="45.01" y2="1.17"/><line class="cls-2" x1="33.06" y1="13.78" x2="33.06" y2="1.17"/><line class="cls-2" x1="39.04" y1="13.78" x2="39.04" y2="1.17"/><line class="cls-1" x1="16.81" y1="38.79" x2="54.6" y2="38.79"/><line class="cls-1" x1="16.81" y1="49.88" x2="54.6" y2="49.88"/><rect class="cls-3" x="56.21" y="24.72" width="12.9" height="49.89" transform="translate(53.39 -29.75) rotate(44.94)"/><line class="cls-4" x1="76.88" y1="35.42" x2="54.95" y2="57.39"/><polygon class="cls-5" points="35.7 76.69 48.66 73.23 39.13 63.72 35.7 76.69"/><path class="cls-6" d="M80.6,25.6h6.51a3.62,3.62,0,0,1,3.62,3.62v2.05a0,0,0,0,1,0,0H77a0,0,0,0,1,0,0V29.22A3.62,3.62,0,0,1,80.6,25.6Z" transform="translate(44.58 -50.92) rotate(44.94)"/></g></g></svg>