<svg xmlns="http://www.w3.org/2000/svg" viewBox="0 0 62.47 80.88"><defs><style>.cls-1,.cls-2{fill:#fff;stroke-linecap:round;stroke-linejoin:round;}.cls-1,.cls-2,.cls-3{stroke:#9332fe;}.cls-1{stroke-width:2.93px;}.cls-2{stroke-width:3.1px;}.cls-3{fill:#9332fe;stroke-width:3.12px;}</style></defs><g id="Layer_2" data-name="Layer 2"><g id="Layer_1-2" data-name="Layer 1"><path class="cls-1" d="M60.08,30.47,31.22,59.34,3.8,31.93,2.36,30.48a.75.75,0,0,1,.26,0,1.11,1.11,0,0,1,.76.32L31.15,58.54,58.93,30.76a1.09,1.09,0,0,1,.76-.32h.13A1.15,1.15,0,0,1,60.08,30.47Z"/><polygon class="cls-2" points="60.89 30.25 60.06 31.04 2.44 31.04 1.58 30.2 31.22 1.55 60.89 30.25"/><path class="cls-3" d="M60.91,30.88V79.32H1.56V30.88a1.07,1.07,0,0,1,.82-1,.75.75,0,0,1,.26,0,1.11,1.11,0,0,1,.76.32L31.17,57.9,59,30.12a1.09,1.09,0,0,1,.76-.32h.13a1.15,1.15,0,0,1,.26,0A1.09,1.09,0,0,1,60.91,30.88Z"/></g></g></svg>