<svg xmlns="http://www.w3.org/2000/svg" viewBox="0 0 69.64 108.95"><defs><style>.cls-1{fill:#9332fe;stroke-width:3.12px;}.cls-1,.cls-2{stroke:#9332fe;}.cls-2{fill:none;stroke-width:4px;}</style></defs><g id="Layer_2" data-name="Layer 2"><g id="Layer_1-2" data-name="Layer 1"><path class="cls-1" d="M58.82,40.87h-48a9.27,9.27,0,0,0-9.26,9.26v48a9.26,9.26,0,0,0,9.26,9.26h48a9.26,9.26,0,0,0,9.26-9.26v-48A9.27,9.27,0,0,0,58.82,40.87ZM42,89.22H27.48l3.84-14.31a8.57,8.57,0,0,1-4.77-8.12A8.28,8.28,0,0,1,43,66a8.58,8.58,0,0,1-4.71,9Q40.14,82.15,42,89.22Z"/><path class="cls-2" d="M62.61,49.68c0,15.44-12.21-6.6-27.64-6.6S7,65.12,7,49.68,19.54,2,35,2,62.61,34.25,62.61,49.68Z"/></g></g></svg>