<svg xmlns="http://www.w3.org/2000/svg" width="1150" height="873" viewBox="0 0 1150 873">
  <g id="Group_7" data-name="Group 7" transform="translate(-370 -186)">
    <rect id="Rectangle_2" data-name="Rectangle 2" width="1150" height="873" rx="60" transform="translate(370 186)" fill="#eef2f5"/>
    <g id="Group_3" data-name="Group 3" transform="translate(-4)">
      <g id="Group_2" data-name="Group 2" transform="translate(-92 -193.675)">
        <g id="Group_1" data-name="Group 1">
          <circle id="Ellipse_1" data-name="Ellipse 1" cx="83" cy="83" r="83" transform="translate(540 436)" fill="#fff6f6"/>
          <ellipse id="Ellipse_2" data-name="Ellipse 2" cx="71" cy="67" rx="71" ry="67" transform="translate(552 452)" fill="#eef2f5"/>
        </g>
        <path id="Union_1" data-name="Union 1" d="M13.8,99.858A13.674,13.674,0,0,1,2,86.314V13.672a13.672,13.672,0,1,1,27.344,0V67.163L143.127,26.87a13.583,13.583,0,0,1,17.378,8.717,14.16,14.16,0,0,1-8.475,17.871L21.8,99.574a13.248,13.248,0,0,1-8.006.284Z" transform="matrix(0.914, -0.407, 0.407, 0.914, 567.448, 487.938)" fill="#fe7259"/>
      </g>
      <rect id="Rectangle_4" data-name="Rectangle 4" width="663" height="133" rx="31" transform="translate(764 252)" fill="#fff"/>
      <text id="MONGODB" transform="translate(1018 336)" fill="#707070" font-size="50" font-family="Roboto-Bold, Roboto" font-weight="700"><tspan x="0" y="0">MONGODB</tspan></text>
    </g>
    <g id="Group_4" data-name="Group 4" transform="translate(-4 189)">
      <g id="Group_2-2" data-name="Group 2" transform="translate(-92 -193.675)">
        <g id="Group_1-2" data-name="Group 1">
          <circle id="Ellipse_1-2" data-name="Ellipse 1" cx="83" cy="83" r="83" transform="translate(540 436)" fill="#fff6f6"/>
          <ellipse id="Ellipse_2-2" data-name="Ellipse 2" cx="71" cy="67" rx="71" ry="67" transform="translate(552 452)" fill="#eef2f5"/>
        </g>
        <path id="Union_1-2" data-name="Union 1" d="M13.8,99.858A13.674,13.674,0,0,1,2,86.314V13.672a13.672,13.672,0,1,1,27.344,0V67.163L143.127,26.87a13.583,13.583,0,0,1,17.378,8.717,14.16,14.16,0,0,1-8.475,17.871L21.8,99.574a13.248,13.248,0,0,1-8.006.284Z" transform="matrix(0.914, -0.407, 0.407, 0.914, 567.448, 487.938)" fill="#fe7259"/>
      </g>
      <rect id="Rectangle_4-2" data-name="Rectangle 4" width="663" height="133" rx="31" transform="translate(764 252)" fill="#fff"/>
      <text id="EXPRESS" transform="translate(1018 336)" fill="#707070" font-size="50" font-family="Roboto-Bold, Roboto" font-weight="700"><tspan x="0" y="0">EXPRESS</tspan></text>
    </g>
    <g id="Group_5" data-name="Group 5" transform="translate(-4 378)">
      <g id="Group_2-3" data-name="Group 2" transform="translate(-92 -193.675)">
        <g id="Group_1-3" data-name="Group 1">
          <circle id="Ellipse_1-3" data-name="Ellipse 1" cx="83" cy="83" r="83" transform="translate(540 436)" fill="#fff6f6"/>
          <ellipse id="Ellipse_2-3" data-name="Ellipse 2" cx="71" cy="67" rx="71" ry="67" transform="translate(552 452)" fill="#eef2f5"/>
        </g>
        <path id="Union_1-3" data-name="Union 1" d="M13.8,99.858A13.674,13.674,0,0,1,2,86.314V13.672a13.672,13.672,0,1,1,27.344,0V67.163L143.127,26.87a13.583,13.583,0,0,1,17.378,8.717,14.16,14.16,0,0,1-8.475,17.871L21.8,99.574a13.248,13.248,0,0,1-8.006.284Z" transform="matrix(0.914, -0.407, 0.407, 0.914, 567.448, 487.938)" fill="#fe7259"/>
      </g>
      <rect id="Rectangle_4-3" data-name="Rectangle 4" width="663" height="133" rx="31" transform="translate(764 252)" fill="#fff"/>
      <text id="REACT" transform="translate(1018 336)" fill="#707070" font-size="50" font-family="Roboto-Bold, Roboto" font-weight="700"><tspan x="0" y="0">REACT</tspan></text>
    </g>
    <g id="Group_6" data-name="Group 6" transform="translate(-4 595)">
      <g id="Group_2-4" data-name="Group 2" transform="translate(-92 -193.675)">
        <g id="Group_1-4" data-name="Group 1">
          <circle id="Ellipse_1-4" data-name="Ellipse 1" cx="83" cy="83" r="83" transform="translate(540 436)" fill="#fff6f6"/>
          <ellipse id="Ellipse_2-4" data-name="Ellipse 2" cx="71" cy="67" rx="71" ry="67" transform="translate(552 452)" fill="#eef2f5"/>
        </g>
        <path id="Union_1-4" data-name="Union 1" d="M13.8,99.858A13.674,13.674,0,0,1,2,86.314V13.672a13.672,13.672,0,1,1,27.344,0V67.163L143.127,26.87a13.583,13.583,0,0,1,17.378,8.717,14.16,14.16,0,0,1-8.475,17.871L21.8,99.574a13.248,13.248,0,0,1-8.006.284Z" transform="matrix(0.914, -0.407, 0.407, 0.914, 567.448, 487.938)" fill="#fe7259"/>
      </g>
      <rect id="Rectangle_4-4" data-name="Rectangle 4" width="663" height="133" rx="31" transform="translate(764 252)" fill="#fff"/>
      <text id="NODE" transform="translate(1018 336)" fill="#707070" font-size="50" font-family="Roboto-Bold, Roboto" font-weight="700"><tspan x="0" y="0">NODE</tspan></text>
    </g>
  </g>
</svg>
